<svg width="184" height="29" viewBox="0 0 184 29" fill="none" xmlns="http://www.w3.org/2000/svg">
<path d="M0.156 21V1.4H7.548C9.44267 1.4 10.8473 1.806 11.762 2.618C12.686 3.42067 13.148 4.592 13.148 6.132C13.148 7.28 12.8867 8.24133 12.364 9.016C11.8507 9.78133 11.076 10.3413 10.04 10.696V10.024C11.608 10.36 12.7793 10.976 13.554 11.872C14.3287 12.768 14.716 13.9533 14.716 15.428C14.716 17.192 14.1467 18.564 13.008 19.544C11.8693 20.5147 10.3107 21 8.332 21H0.156ZM3.74 17.808H7.8C8.78 17.808 9.55933 17.6073 10.138 17.206C10.726 16.8047 11.02 16.0813 11.02 15.036C11.02 13.972 10.712 13.2487 10.096 12.866C9.48 12.4833 8.71467 12.292 7.8 12.292H3.74V17.808ZM3.74 9.1H7.016C7.884 9.1 8.53267 8.92267 8.962 8.568C9.40067 8.21333 9.62 7.644 9.62 6.86C9.62 6.048 9.40067 5.46933 8.962 5.124C8.53267 4.76933 7.884 4.592 7.016 4.592H3.74V9.1ZM24.1833 21.28C22.7273 21.28 21.5653 20.9907 20.6973 20.412C19.8293 19.8333 19.2039 19.04 18.8213 18.032C18.4386 17.0147 18.2473 15.848 18.2473 14.532V7H21.7193V14.532C21.7193 15.8293 21.9339 16.7953 22.3633 17.43C22.8019 18.0553 23.5113 18.368 24.4913 18.368C25.2753 18.368 25.9239 18.1813 26.4373 17.808C26.9599 17.4347 27.3939 16.912 27.7393 16.24L27.1233 18.004V7H30.5953V21H27.3473L27.1793 18.564L27.9353 19.544C27.5993 19.9733 27.0673 20.37 26.3393 20.734C25.6206 21.098 24.9019 21.28 24.1833 21.28ZM40.8925 21.28C39.4738 21.28 38.2792 20.9487 37.3085 20.286C36.3472 19.6233 35.6192 18.7413 35.1245 17.64C34.6392 16.5387 34.3965 15.3347 34.3965 14.028C34.3965 12.7213 34.6392 11.5173 35.1245 10.416C35.6192 9.31467 36.3472 8.43267 37.3085 7.77C38.2792 7.10733 39.4738 6.776 40.8925 6.776C41.9192 6.776 42.7872 6.94867 43.4965 7.294C44.2058 7.63 44.8312 8.064 45.3725 8.596L44.5325 9.324V-1.66893e-06H48.0045V21H44.7285L44.5605 18.62L45.5685 19.348C44.9152 19.9453 44.2385 20.4167 43.5385 20.762C42.8385 21.1073 41.9565 21.28 40.8925 21.28ZM41.3965 18.424C42.1618 18.424 42.7872 18.2373 43.2725 17.864C43.7578 17.4907 44.1172 16.9773 44.3505 16.324C44.5838 15.6613 44.7005 14.896 44.7005 14.028C44.7005 13.16 44.5838 12.3993 44.3505 11.746C44.1172 11.0833 43.7578 10.5653 43.2725 10.192C42.7872 9.81867 42.1618 9.632 41.3965 9.632C40.6685 9.632 40.0478 9.81867 39.5345 10.192C39.0212 10.5653 38.6292 11.0833 38.3585 11.746C38.0878 12.3993 37.9525 13.16 37.9525 14.028C37.9525 14.896 38.0878 15.6613 38.3585 16.324C38.6292 16.9773 39.0212 17.4907 39.5345 17.864C40.0478 18.2373 40.6685 18.424 41.3965 18.424ZM58.1766 28.056C56.8699 28.056 55.7266 27.8927 54.7466 27.566C53.7759 27.2487 53.0199 26.7913 52.4786 26.194C51.9466 25.5967 51.6806 24.8827 51.6806 24.052C51.6806 23.352 51.8719 22.7267 52.2546 22.176C52.6466 21.6347 53.2113 21.1587 53.9486 20.748C53.5753 20.524 53.2766 20.244 53.0526 19.908C52.8286 19.572 52.7166 19.1893 52.7166 18.76C52.7166 18.312 52.8426 17.9247 53.0946 17.598C53.3559 17.262 53.6966 16.996 54.1166 16.8C53.4073 16.296 52.8706 15.652 52.5066 14.868C52.1426 14.0747 51.9606 13.216 51.9606 12.292C51.9606 11.284 52.1799 10.36 52.6186 9.52C53.0573 8.67067 53.6966 7.994 54.5366 7.49C55.3859 6.97667 56.4219 6.72 57.6446 6.72C58.2793 6.72 58.8626 6.79933 59.3946 6.958C59.9359 7.11667 60.4166 7.336 60.8366 7.616C61.1166 7.45733 61.5226 7.31733 62.0546 7.196C62.5866 7.06533 63.1793 7 63.8326 7C63.9913 7 64.1406 7 64.2806 7C64.4299 7 64.5793 7 64.7286 7L64.5046 9.184C64.2993 9.184 64.0893 9.184 63.8746 9.184C63.6693 9.184 63.4593 9.184 63.2446 9.184C63.1606 9.184 63.0486 9.184 62.9086 9.184C62.7686 9.184 62.6193 9.19333 62.4606 9.212C62.7406 9.64133 62.9506 10.122 63.0906 10.654C63.2306 11.186 63.3006 11.732 63.3006 12.292C63.3006 13.3 63.0813 14.2287 62.6426 15.078C62.2133 15.918 61.5786 16.5947 60.7386 17.108C59.8986 17.612 58.8673 17.864 57.6446 17.864C57.3833 17.864 57.1313 17.8453 56.8886 17.808C56.6459 17.7707 56.4033 17.724 56.1606 17.668C55.9553 17.752 55.8526 17.9013 55.8526 18.116C55.8526 18.368 56.0066 18.5593 56.3146 18.69C56.6226 18.8207 57.1033 18.9373 57.7566 19.04L60.1646 19.348C61.6673 19.544 62.8433 19.9687 63.6926 20.622C64.5513 21.2753 64.9806 22.204 64.9806 23.408C64.9806 24.3413 64.7099 25.1533 64.1686 25.844C63.6366 26.544 62.8619 27.0853 61.8446 27.468C60.8273 27.86 59.6046 28.056 58.1766 28.056ZM58.3166 25.424C59.4926 25.424 60.3839 25.2793 60.9906 24.99C61.5973 24.7007 61.9006 24.2573 61.9006 23.66C61.9006 23.128 61.6859 22.736 61.2566 22.484C60.8366 22.232 60.1646 22.036 59.2406 21.896L56.1746 21.448C55.7173 21.6253 55.3346 21.868 55.0266 22.176C54.7186 22.4933 54.5646 22.904 54.5646 23.408C54.5646 24.0893 54.8959 24.5933 55.5586 24.92C56.2213 25.256 57.1406 25.424 58.3166 25.424ZM57.6446 15.288C58.4753 15.288 59.1006 15.0173 59.5206 14.476C59.9499 13.9253 60.1646 13.1973 60.1646 12.292C60.1646 11.3773 59.9499 10.6493 59.5206 10.108C59.1006 9.56667 58.4753 9.296 57.6446 9.296C56.8046 9.296 56.1699 9.56667 55.7406 10.108C55.3113 10.6493 55.0966 11.3773 55.0966 12.292C55.0966 13.1973 55.3113 13.9253 55.7406 14.476C56.1699 15.0173 56.8046 15.288 57.6446 15.288ZM74.6986 21.28C73.0092 21.28 71.5999 20.944 70.4706 20.272C69.3506 19.5907 68.5106 18.6947 67.9506 17.584C67.3906 16.464 67.1106 15.2413 67.1106 13.916C67.1106 12.6373 67.3719 11.4567 67.8946 10.374C68.4266 9.29133 69.2012 8.42333 70.2186 7.77C71.2359 7.10733 72.4772 6.776 73.9426 6.776C75.2866 6.776 76.4066 7.05133 77.3026 7.602C78.1986 8.15267 78.8706 8.89 79.3186 9.814C79.7666 10.7287 79.9906 11.7413 79.9906 12.852C79.9906 13.16 79.9719 13.4727 79.9346 13.79C79.8972 14.098 79.8412 14.42 79.7666 14.756H70.7226C70.8532 15.624 71.1239 16.3287 71.5346 16.87C71.9546 17.402 72.4632 17.794 73.0606 18.046C73.6672 18.298 74.3159 18.424 75.0066 18.424C75.8186 18.424 76.5746 18.3213 77.2746 18.116C77.9746 17.9013 78.6186 17.6213 79.2066 17.276L79.3746 20.216C78.8426 20.496 78.1799 20.7433 77.3866 20.958C76.5932 21.1727 75.6972 21.28 74.6986 21.28ZM70.8066 12.404H76.4626C76.4626 11.984 76.3832 11.564 76.2246 11.144C76.0659 10.7147 75.7999 10.3553 75.4266 10.066C75.0626 9.77667 74.5679 9.632 73.9426 9.632C73.0466 9.632 72.3419 9.89333 71.8286 10.416C71.3152 10.9387 70.9746 11.6013 70.8066 12.404ZM88.3247 21.28C87.4474 21.28 86.7334 21.1027 86.1827 20.748C85.6321 20.384 85.2261 19.922 84.9647 19.362C84.7034 18.802 84.5727 18.2187 84.5727 17.612V9.856H82.5847L82.8927 7H84.5727V3.92L88.0447 3.556V7H91.1247V9.856H88.0447V16.184C88.0447 16.8933 88.0867 17.4067 88.1707 17.724C88.2547 18.032 88.4461 18.228 88.7447 18.312C89.0434 18.3867 89.5194 18.424 90.1727 18.424H91.1247L90.8167 21.28H88.3247ZM95.0169 21V1.4H102.409C104.304 1.4 105.708 1.806 106.623 2.618C107.547 3.42067 108.009 4.592 108.009 6.132C108.009 7.28 107.748 8.24133 107.225 9.016C106.712 9.78133 105.937 10.3413 104.901 10.696V10.024C106.469 10.36 107.64 10.976 108.415 11.872C109.19 12.768 109.577 13.9533 109.577 15.428C109.577 17.192 109.008 18.564 107.869 19.544C106.73 20.5147 105.172 21 103.193 21H95.0169ZM98.6009 17.808H102.661C103.641 17.808 104.42 17.6073 104.999 17.206C105.587 16.8047 105.881 16.0813 105.881 15.036C105.881 13.972 105.573 13.2487 104.957 12.866C104.341 12.4833 103.576 12.292 102.661 12.292H98.6009V17.808ZM98.6009 9.1H101.877C102.745 9.1 103.394 8.92267 103.823 8.568C104.262 8.21333 104.481 7.644 104.481 6.86C104.481 6.048 104.262 5.46933 103.823 5.124C103.394 4.76933 102.745 4.592 101.877 4.592H98.6009V9.1ZM119.044 21.28C117.588 21.28 116.426 20.9907 115.558 20.412C114.69 19.8333 114.065 19.04 113.682 18.032C113.3 17.0147 113.108 15.848 113.108 14.532V7H116.58V14.532C116.58 15.8293 116.795 16.7953 117.224 17.43C117.663 18.0553 118.372 18.368 119.352 18.368C120.136 18.368 120.785 18.1813 121.298 17.808C121.821 17.4347 122.255 16.912 122.6 16.24L121.984 18.004V7H125.456V21H122.208L122.04 18.564L122.796 19.544C122.46 19.9733 121.928 20.37 121.2 20.734C120.482 21.098 119.763 21.28 119.044 21.28ZM135.753 21.28C134.335 21.28 133.14 20.9487 132.169 20.286C131.208 19.6233 130.48 18.7413 129.985 17.64C129.5 16.5387 129.257 15.3347 129.257 14.028C129.257 12.7213 129.5 11.5173 129.985 10.416C130.48 9.31467 131.208 8.43267 132.169 7.77C133.14 7.10733 134.335 6.776 135.753 6.776C136.78 6.776 137.648 6.94867 138.357 7.294C139.067 7.63 139.692 8.064 140.233 8.596L139.393 9.324V-1.66893e-06H142.865V21H139.589L139.421 18.62L140.429 19.348C139.776 19.9453 139.099 20.4167 138.399 20.762C137.699 21.1073 136.817 21.28 135.753 21.28ZM136.257 18.424C137.023 18.424 137.648 18.2373 138.133 17.864C138.619 17.4907 138.978 16.9773 139.211 16.324C139.445 15.6613 139.561 14.896 139.561 14.028C139.561 13.16 139.445 12.3993 139.211 11.746C138.978 11.0833 138.619 10.5653 138.133 10.192C137.648 9.81867 137.023 9.632 136.257 9.632C135.529 9.632 134.909 9.81867 134.395 10.192C133.882 10.5653 133.49 11.0833 133.219 11.746C132.949 12.3993 132.813 13.16 132.813 14.028C132.813 14.896 132.949 15.6613 133.219 16.324C133.49 16.9773 133.882 17.4907 134.395 17.864C134.909 18.2373 135.529 18.424 136.257 18.424ZM153.15 21.28C151.731 21.28 150.536 20.9487 149.566 20.286C148.604 19.6233 147.876 18.7413 147.382 17.64C146.896 16.5387 146.654 15.3347 146.654 14.028C146.654 12.7213 146.896 11.5173 147.382 10.416C147.876 9.31467 148.604 8.43267 149.566 7.77C150.536 7.10733 151.731 6.776 153.15 6.776C154.176 6.776 155.044 6.94867 155.754 7.294C156.463 7.63 157.088 8.064 157.63 8.596L156.79 9.324V-1.66893e-06H160.262V21H156.986L156.818 18.62L157.826 19.348C157.172 19.9453 156.496 20.4167 155.796 20.762C155.096 21.1073 154.214 21.28 153.15 21.28ZM153.654 18.424C154.419 18.424 155.044 18.2373 155.53 17.864C156.015 17.4907 156.374 16.9773 156.608 16.324C156.841 15.6613 156.958 14.896 156.958 14.028C156.958 13.16 156.841 12.3993 156.608 11.746C156.374 11.0833 156.015 10.5653 155.53 10.192C155.044 9.81867 154.419 9.632 153.654 9.632C152.926 9.632 152.305 9.81867 151.792 10.192C151.278 10.5653 150.886 11.0833 150.616 11.746C150.345 12.3993 150.21 13.16 150.21 14.028C150.21 14.896 150.345 15.6613 150.616 16.324C150.886 16.9773 151.278 17.4907 151.792 17.864C152.305 18.2373 152.926 18.424 153.654 18.424ZM166.01 27.776L169.118 20.076L163.294 7H167.158L170.742 16.016L174.382 7H178.246L169.482 27.776H166.01Z" fill="#F5F7FA"/>
<path d="M180.172 21V17.192H183.812V21H180.172Z" fill="#0BBEF2"/>
</svg>
